<svg xmlns="http://www.w3.org/2000/svg" version="1.1" xmlns:xlink="http://www.w3.org/1999/xlink" width="512" height="512" x="0" y="0" viewBox="0 0 100 100" style="enable-background:new 0 0 512 512" xml:space="preserve" class=""><g transform="matrix(-1.8369701987210297e-16,1,-1,-1.8369701987210297e-16,101.36654090881349,-1.3734722137451172)"><path d="m86.29 52h-51.69c-1.1 0-2-.9-2-2s.9-2 2-2h51.69c1.1 0 2 .9 2 2s-.9 2-2 2z" fill="#fff" data-original="#000000" class=""></path><path clip-rule="evenodd" d="m16.45 48c1.1 0 2 .9 2 2s-.9 2-2 2-2-.9-2-2 .89-2 2-2z" fill-rule="evenodd" fill="#fff" data-original="#000000" class=""></path><circle clip-rule="evenodd" cx="25.52" cy="50" fill-rule="evenodd" r="2" fill="#fff" data-original="#000000" class=""></circle><path d="m73 67.62c-.46 0-.92-.16-1.29-.48-.84-.72-.94-1.98-.23-2.82l12.18-14.32-12.18-14.33c-.72-.84-.61-2.1.23-2.82s2.1-.61 2.82.23l13.28 15.62c.63.75.63 1.84 0 2.59l-13.28 15.63c-.4.47-.96.7-1.53.7z" fill="#fff" data-original="#000000" class=""></path></g></svg>